<svg xmlns="http://www.w3.org/2000/svg" width="223.764" height="144.414" viewBox="0 0 223.764 144.414">
  <g id="agreement" transform="translate(0 -96.003)">
    <g id="Group_2" data-name="Group 2" transform="translate(32.622 106.228)">
      <g id="Group_1" data-name="Group 1">
        <path id="Path_1" data-name="Path 1" d="M218.7,207.454c-4.391-9.454-20.1-22.577-35.28-35.257-8.466-7.067-16.465-13.749-21.565-19.015a4.555,4.555,0,0,0-4.876-1.126c-3.142,1.175-5.081,2.08-6.61,2.782a15.047,15.047,0,0,1-6.256,1.771,4.638,4.638,0,0,0-3.412,2.108c-6.592,10.176-13.417,9.31-17.976,7.731-1.454-.5-1.715-1.146-1.855-1.762-.979-4.227,3.935-14.066,10.3-20.642,15.151-15.655,22.964-19.574,39.466-11.958,18.721,8.646,37.481,15.414,37.667,15.482a4.621,4.621,0,0,0,5.939-2.966,4.864,4.864,0,0,0-2.872-6.133c-.187-.067-18.572-6.7-36.921-15.183-21.379-9.869-33.108-3.37-49.862,13.941-6.377,6.585-15.039,19.91-12.8,29.683a11.754,11.754,0,0,0,8.009,8.675c10.564,3.6,20.2.154,27.383-9.685a23.009,23.009,0,0,0,7-2.291c.876-.4,1.9-.876,3.263-1.444,5.333,5.17,12.531,11.187,20.111,17.513C191.262,191.124,206.8,204.1,210.3,211.613a5.756,5.756,0,0,1-1.389,7.23c-1.846,1.637-4.373,2.157-5.743,1.165a4.544,4.544,0,0,0-5.035-.173,4.86,4.86,0,0,0-2.247,4.65c.317,3.062-2.4,4.814-3.571,5.421-2.984,1.56-6.1,1.29-7.263.173a4.593,4.593,0,0,0-4.839-.982,4.793,4.793,0,0,0-2.984,4.053,9.109,9.109,0,0,1-5.5,7.375,4.794,4.794,0,0,1-5.352-.857,4.61,4.61,0,0,0-4.261-1.117,4.711,4.711,0,0,0-3.273,3.033c-.177.482-.578,1.637-4.942,1.637-3.1,0-8.69-2.166-11.421-4.034-3.273-2.224-23.794-18.033-41.517-33.361-2.489-2.166-6.8-6.807-10.6-10.909-3.375-3.639-6.461-6.942-8.046-8.328a4.54,4.54,0,0,0-6.573.568,4.928,4.928,0,0,0,.55,6.788c1.445,1.261,4.242,4.313,7.328,7.635,4.158,4.486,8.456,9.127,11.347,11.631,17.361,15.01,38.227,31.214,42.385,34.034,3.431,2.33,10.825,5.6,16.549,5.6,4.6,0,8.13-1.088,10.582-3.216a14.085,14.085,0,0,0,10.6-.116,18.607,18.607,0,0,0,9.706-9.252,17.523,17.523,0,0,0,11.7-1.742,16.124,16.124,0,0,0,7.785-8.4,14.955,14.955,0,0,0,10.694-3.957A15.646,15.646,0,0,0,218.7,207.454Z" transform="translate(-74.642 -118.658)" fill="#d72323"/>
      </g>
    </g>
    <g id="Group_4" data-name="Group 4" transform="translate(46.617 115.256)">
      <g id="Group_3" data-name="Group 3">
        <path id="Path_2" data-name="Path 2" d="M153.284,138.663H111.328a4.817,4.817,0,0,0,0,9.628h41.956a4.817,4.817,0,0,0,0-9.628Z" transform="translate(-106.666 -138.663)" fill="#d72323"/>
      </g>
    </g>
    <g id="Group_6" data-name="Group 6" transform="translate(168.178 182.642)">
      <g id="Group_5" data-name="Group 5">
        <path id="Path_3" data-name="Path 3" d="M406.973,290.114a4.56,4.56,0,0,0-6.47-1.309l-13.631,9.454a4.915,4.915,0,0,0-1.268,6.682,4.644,4.644,0,0,0,3.879,2.128,4.518,4.518,0,0,0,2.592-.818l13.631-9.454A4.916,4.916,0,0,0,406.973,290.114Z" transform="translate(-384.811 -287.977)" fill="#d72323"/>
      </g>
    </g>
    <g id="Group_8" data-name="Group 8" transform="translate(125.874 177.832)">
      <g id="Group_7" data-name="Group 7">
        <path id="Path_4" data-name="Path 4" d="M323.54,307.237c-3.338-2.715-18.265-18.495-27.5-28.431a4.547,4.547,0,0,0-6.592-.144,4.921,4.921,0,0,0-.14,6.807c2.4,2.58,23.532,25.331,28.446,29.336a4.55,4.55,0,0,0,2.881,1.03A4.656,4.656,0,0,0,324.314,314,4.917,4.917,0,0,0,323.54,307.237Z" transform="translate(-288.016 -277.317)" fill="#d72323"/>
      </g>
    </g>
    <g id="Group_10" data-name="Group 10" transform="translate(111.884 192.282)">
      <g id="Group_9" data-name="Group 9">
        <path id="Path_5" data-name="Path 5" d="M286.892,334.463c-5.585-4.612-19.617-20.007-22.787-23.569a4.566,4.566,0,0,0-6.592-.289,4.933,4.933,0,0,0-.28,6.807c.168.183,16.913,18.852,23.831,24.57a4.592,4.592,0,0,0,2.909,1.049,4.65,4.65,0,0,0,3.645-1.8A4.933,4.933,0,0,0,286.892,334.463Z" transform="translate(-256.005 -309.337)" fill="#d72323"/>
      </g>
    </g>
    <g id="Group_12" data-name="Group 12" transform="translate(93.239 201.898)">
      <g id="Group_11" data-name="Group 11">
        <path id="Path_6" data-name="Path 6" d="M244.321,355.849c-6.648-5.786-20.251-20.738-22.908-23.675a4.557,4.557,0,0,0-6.592-.231,4.932,4.932,0,0,0-.224,6.807c3.823,4.226,16.838,18.476,23.71,24.464a4.562,4.562,0,0,0,3,1.136,4.619,4.619,0,0,0,3.571-1.714A4.929,4.929,0,0,0,244.321,355.849Z" transform="translate(-213.343 -330.644)" fill="#d72323"/>
      </g>
    </g>
    <g id="Group_14" data-name="Group 14" transform="translate(0 96.003)">
      <g id="Group_13" data-name="Group 13">
        <path id="Path_7" data-name="Path 7" d="M54.487,106.947C46.5,99.129,14.545,96.6,4.942,96.01a4.545,4.545,0,0,0-3.478,1.3A4.888,4.888,0,0,0,0,100.814v86.651a4.742,4.742,0,0,0,4.662,4.814H32.632a4.674,4.674,0,0,0,4.429-3.322c.68-2.157,16.745-53.069,18.861-78.1A4.876,4.876,0,0,0,54.487,106.947Zm-25.257,75.7H9.323V105.975c14.983,1.223,31.15,3.88,37.024,6.826C43.877,133.886,32.7,171.348,29.229,182.651Z" transform="translate(0 -96.003)" fill="#d72323"/>
      </g>
    </g>
    <g id="Group_16" data-name="Group 16" transform="translate(158.666 105.628)">
      <g id="Group_15" data-name="Group 15">
        <path id="Path_8" data-name="Path 8" d="M423.483,117.33c-36.6,0-56.911,9.676-57.759,10.08a4.749,4.749,0,0,0-2.489,2.994,4.992,4.992,0,0,0,.513,3.909c5.762,9.58,23.8,62.783,27.271,75.762a4.687,4.687,0,0,0,4.494,3.533h27.97a4.742,4.742,0,0,0,4.662-4.814V122.144A4.735,4.735,0,0,0,423.483,117.33Zm-4.661,86.651H399c-4.419-14.866-17.472-53.627-24.754-69.648,7.114-2.493,22.4-6.778,44.576-7.317Z" transform="translate(-363.046 -117.33)" fill="#d72323"/>
      </g>
    </g>
  </g>
</svg>
