<svg id="facebook" xmlns="http://www.w3.org/2000/svg" width="114.188" height="110.111" viewBox="0 0 114.188 110.111">
  <path id="Path_23" data-name="Path 23" d="M297.277,508.668q-3.2.521-6.422.961Q294.078,509.189,297.277,508.668Zm0,0" transform="translate(-228.858 -401.889)" fill="#d72323"/>
  <path id="Path_24" data-name="Path 24" d="M302.4,507.793c-1.02.188-2.039.359-3.059.535C300.359,508.152,301.378,507.98,302.4,507.793Zm0,0" transform="translate(-233.977 -401.889)" fill="#d72323"/>
  <path id="Path_25" data-name="Path 25" d="M285.137,510.34q-3.744.422-7.527.742Q281.389,510.766,285.137,510.34Zm0,0" transform="translate(-218.914 -401.889)" fill="#d72323"/>
  <path id="Path_26" data-name="Path 26" d="M290.055,509.738c-1.2.16-2.406.309-3.609.449C287.649,510.047,288.856,509.9,290.055,509.738Zm0,0" transform="translate(-224.141 -401.889)" fill="#d72323"/>
  <path id="Path_27" data-name="Path 27" d="M309.367,506.41c-.9.191-1.8.383-2.7.566C307.566,506.793,308.469,506.6,309.367,506.41Zm0,0" transform="translate(-239.535 -401.889)" fill="#d72323"/>
  <path id="Path_28" data-name="Path 28" d="M326.664,502.113c-.727.207-1.453.4-2.18.605C325.211,502.515,325.937,502.32,326.664,502.113Zm0,0" transform="translate(-253.194 -401.889)" fill="#d72323"/>
  <path id="Path_29" data-name="Path 29" d="M321.434,503.543c-.789.207-1.582.418-2.375.617Q320.248,503.861,321.434,503.543Zm0,0" transform="translate(-249.056 -401.889)" fill="#d72323"/>
  <path id="Path_30" data-name="Path 30" d="M314.59,505.254c-.836.2-1.68.379-2.523.566C312.91,505.633,313.754,505.449,314.59,505.254Zm0,0" transform="translate(-243.669 -401.889)" fill="#d72323"/>
  <path id="Path_31" data-name="Path 31" d="M277.527,511.09q-2.021.17-4.047.3Q275.507,511.26,277.527,511.09Zm0,0" transform="translate(-214.18 -401.889)" fill="#d72323"/>
  <path id="Path_32" data-name="Path 32" d="M114.188,55.056C114.188,24.654,88.622,0,57.094,0S0,24.654,0,55.056s25.567,55.056,57.094,55.056c.335,0,.669-.007,1-.013V67.24H45.831V53.455H58.1V43.311c0-11.765,7.448-18.168,18.331-18.168a104.672,104.672,0,0,1,11,.542v12.3h-7.5c-5.921,0-7.067,2.713-7.067,6.695v8.78H87.011L85.166,67.24H72.854v40.744c23.864-6.6,41.334-27.8,41.334-52.928Zm0,0" fill="#d72323"/>
  <path id="Path_33" data-name="Path 33" d="M272.914,511.43q-4,.258-8.023.4Q268.916,511.694,272.914,511.43Zm0,0" transform="translate(-209.09 -401.889)" fill="#d72323"/>
  <path id="Path_34" data-name="Path 34" d="M264.754,511.836q-2.121.07-4.25.105Q262.631,511.906,264.754,511.836Zm0,0" transform="translate(-204.099 -401.889)" fill="#d72323"/>
</svg>
