<svg xmlns="http://www.w3.org/2000/svg" width="102.463" height="68.097" viewBox="0 0 102.463 68.097">
  <g id="mail" transform="translate(-23 -105)">
    <g id="Group_40" data-name="Group 40" transform="translate(0 64)">
      <g id="Group_39" data-name="Group 39">
        <path id="Path_21" data-name="Path 21" d="M7.628,69.117c13.306,9.774,36.654,26.968,43.516,32.329a4.495,4.495,0,0,0,5.864.007c6.868-5.367,30.216-22.563,43.522-32.336a1.594,1.594,0,0,0,.284-2.417,8.511,8.511,0,0,0-6.34-2.7H13.684a8.511,8.511,0,0,0-6.339,2.7A1.594,1.594,0,0,0,7.628,69.117Z" transform="translate(20 -23)" fill="#d72323"/>
        <path id="Path_22" data-name="Path 22" d="M101.225,126.593a2.29,2.29,0,0,0-2.276.281c-15.6,12.055-35.5,27.508-41.761,32.653a9.26,9.26,0,0,1-11.916,0c-6.675-5.484-29.026-22.811-41.757-32.65a2.3,2.3,0,0,0-2.276-.281A1.945,1.945,0,0,0,0,128.359v48.952C0,181.6,3.829,185.1,8.539,185.1H93.925c4.709,0,8.538-3.492,8.538-7.786V128.359A1.943,1.943,0,0,0,101.225,126.593Z" transform="translate(23 -76)" fill="#d72323"/>
      </g>
    </g>
  </g>
</svg>
