<svg width="385" height="193" viewBox="0 0 385 193" fill="none" xmlns="http://www.w3.org/2000/svg">
<path d="M12.03 24.3029H372.939C379.58 24.3029 384.969 18.9129 384.969 12.2729C384.969 5.63193 379.579 0.24292 372.939 0.24292H12.03C5.389 0.24292 0 5.63293 0 12.2729C0 18.9129 5.39 24.3029 12.03 24.3029Z" fill="#EEEEEE"/>
<path d="M372.939 84.4548H12.03C5.389 84.4548 0 89.8448 0 96.4848C0 103.125 5.39 108.515 12.03 108.515H372.939C379.58 108.515 384.969 103.125 384.969 96.4848C384.969 89.8448 379.58 84.4548 372.939 84.4548Z" fill="#EEEEEE"/>
<path d="M372.939 168.667H132.333C125.692 168.667 120.303 174.057 120.303 180.697C120.303 187.338 125.693 192.727 132.333 192.727H372.939C379.58 192.727 384.969 187.337 384.969 180.697C384.97 174.056 379.58 168.667 372.939 168.667Z" fill="#EEEEEE"/>
</svg>
