<svg xmlns="http://www.w3.org/2000/svg" width="90.336" height="86.058" viewBox="0 0 90.336 86.058">
  <g id="phone" transform="translate(-0.539)">
    <g id="Group_38" data-name="Group 38" transform="translate(0.539 0)">
      <path id="Path_20" data-name="Path 20" d="M88.507,63.158,75.873,51.148c-4.512-4.289-12.182-2.573-13.987,3-1.354,3.86-5.865,6-9.926,5.147C42.937,57.153,30.755,46,28.5,36.994c-1.354-3.86,1.354-8.15,5.414-9.436a7.828,7.828,0,0,0,3.158-13.3L24.438,2.252c-3.609-3-9.024-3-12.182,0L3.684,10.4c-8.573,8.578.9,31.311,22.108,51.47s45.119,29.6,54.142,21.017l8.573-8.149A8.257,8.257,0,0,0,88.507,63.158Z" transform="translate(-0.539 0)" fill="#d72323"/>
    </g>
  </g>
</svg>
