<svg xmlns="http://www.w3.org/2000/svg" width="161.841" height="159.925" viewBox="0 0 161.841 159.925">
  <g id="price" transform="translate(0 89.525)">
    <g id="Group_19" data-name="Group 19" transform="translate(0 -89.525)">
      <g id="Group_18" data-name="Group 18">
        <path id="Path_10" data-name="Path 10" d="M138.14,23.42a81.609,81.609,0,0,0-114.44,0,79.3,79.3,0,0,0,0,113.085,81.609,81.609,0,0,0,114.44,0,79.3,79.3,0,0,0,0-113.085ZM80.921,150.555c-39.391,0-71.438-31.667-71.438-70.592S41.53,9.371,80.921,9.371s71.438,31.667,71.438,70.592S120.312,150.555,80.921,150.555Z" fill="#d72323"/>
      </g>
    </g>
    <g id="Group_21" data-name="Group 21" transform="translate(42.912 -56.948)">
      <g id="Group_20" data-name="Group 20">
        <path id="Path_11" data-name="Path 11" d="M222.06,139.545H206.782c-8.7,0-15.785-4.444-15.785-9.906s7.081-9.906,15.785-9.906h30.556c3.939,0,7.132-2,7.132-4.476s-3.193-4.476-7.132-4.476H221.552v-9.906c0-2.472-3.193-4.476-7.132-4.476s-7.132,2-7.132,4.476v9.906h-.507c-16.569,0-30.048,8.459-30.048,18.857s13.48,18.857,30.048,18.857H222.06c8.7,0,15.784,4.444,15.784,9.906s-7.081,9.906-15.784,9.906H191.5c-3.939,0-7.132,2-7.132,4.476s3.193,4.476,7.132,4.476h15.784v9.906c0,2.472,3.193,4.476,7.132,4.476s7.132-2,7.132-4.476v-9.906h.507c16.568,0,30.048-8.459,30.048-18.857S238.628,139.545,222.06,139.545Z" transform="translate(-176.734 -96.401)" fill="#d72323"/>
      </g>
    </g>
  </g>
</svg>
