<svg xmlns="http://www.w3.org/2000/svg" width="136.321" height="160.715" viewBox="0 0 136.321 160.715">
  <g id="shield_1_" data-name="shield (1)" transform="translate(-33.908)">
    <g id="Group_17" data-name="Group 17" transform="translate(33.908 0)">
      <path id="Path_9" data-name="Path 9" d="M170.057,41.368c-.194-4.228-.194-8.264-.194-12.3a5.685,5.685,0,0,0-5.811-5.766c-24.212,0-42.612-6.919-57.914-21.717a6.01,6.01,0,0,0-8.135,0C82.7,16.384,64.3,23.3,40.089,23.3a5.685,5.685,0,0,0-5.811,5.766c0,4.036,0,8.072-.194,12.3-.775,40.359-1.937,95.709,66.049,118.963l1.937.384,1.937-.384C171.8,137.076,170.832,81.919,170.057,41.368ZM97.422,97.294a6.279,6.279,0,0,1-4.068,1.537h-.194a5.468,5.468,0,0,1-4.068-1.922L71.08,77.115,79.8,69.427l14.14,15.567,31.378-29.6,7.941,8.456Z" transform="translate(-33.908 0)" fill="#d72323"/>
    </g>
  </g>
</svg>
