<svg xmlns="http://www.w3.org/2000/svg" width="157.891" height="175.463" viewBox="0 0 157.891 175.463">
  <g id="user" transform="translate(-1181.542 -230)">
    <g id="Group_35" data-name="Group 35" transform="translate(1209.607 230)">
      <g id="Group_34" data-name="Group 34">
        <path id="Path_18" data-name="Path 18" d="M171.946,0C143.855,0,121,21.143,121,47.13s22.855,47.13,50.946,47.13,50.946-21.143,50.946-47.13S200.038,0,171.946,0Z" transform="translate(-121)" fill="#d72323"/>
      </g>
    </g>
    <g id="Group_37" data-name="Group 37" transform="translate(1181.542 328.301)">
      <g id="Group_36" data-name="Group 36" transform="translate(0)">
        <path id="Path_19" data-name="Path 19" d="M168.88,321.181A66.351,66.351,0,0,0,120.472,300H99.42a66.351,66.351,0,0,0-48.408,21.181A73,73,0,0,0,31,371.7a5.364,5.364,0,0,0,5.263,5.46H183.628a5.364,5.364,0,0,0,5.263-5.46A73,73,0,0,0,168.88,321.181Z" transform="translate(-31 -300)" fill="#d72323"/>
      </g>
    </g>
  </g>
</svg>
